<svg width="47" height="13" viewBox="0 0 47 13" fill="none" xmlns="http://www.w3.org/2000/svg">
<path d="M7.71396 2.92569V9.24629C7.71396 10.5251 7.39486 11.4682 6.75665 12.0754C6.11845 12.6918 5.16576 13 3.8986 13C3.2049 13 2.54357 12.9034 1.91462 12.7102C1.28566 12.5262 0.776945 12.2594 0.388473 11.9098L1.02668 10.8885C1.3689 11.1829 1.78975 11.413 2.28921 11.5786C2.79793 11.7534 3.32052 11.8408 3.85698 11.8408C4.71717 11.8408 5.35075 11.6384 5.75772 11.2335C6.17394 10.8287 6.38205 10.2123 6.38205 9.38429V8.80467C6.06757 9.18188 5.6791 9.46709 5.21663 9.6603C4.76342 9.8443 4.26858 9.93631 3.73211 9.93631C3.02916 9.93631 2.39096 9.7891 1.8175 9.49469C1.25329 9.19108 0.809318 8.77247 0.485591 8.23885C0.161864 7.69604 0 7.07962 0 6.3896C0 5.69958 0.161864 5.08776 0.485591 4.55414C0.809318 4.01132 1.25329 3.59271 1.8175 3.2983C2.39096 3.00389 3.02916 2.85669 3.73211 2.85669C4.28707 2.85669 4.80041 2.95789 5.27213 3.1603C5.7531 3.3627 6.14619 3.66171 6.45142 4.05733V2.92569H7.71396ZM3.88473 8.77707C4.36569 8.77707 4.79579 8.67587 5.17501 8.47346C5.56348 8.27106 5.86409 7.99045 6.07682 7.63164C6.29881 7.26362 6.4098 6.84961 6.4098 6.3896C6.4098 5.68118 6.17394 5.11076 5.70222 4.67834C5.23051 4.23673 4.62468 4.01592 3.88473 4.01592C3.13553 4.01592 2.52507 4.23673 2.05336 4.67834C1.58164 5.11076 1.34578 5.68118 1.34578 6.3896C1.34578 6.84961 1.45215 7.26362 1.66488 7.63164C1.88687 7.99045 2.18747 8.27106 2.56669 8.47346C2.95517 8.67587 3.39451 8.77707 3.88473 8.77707Z" fill="white"/>
<path d="M10.3976 0H11.7295V10.2399H10.3976V0Z" fill="white"/>
<path d="M17.5607 10.3227C16.83 10.3227 16.1733 10.1617 15.5906 9.8397C15.0079 9.51769 14.5501 9.07608 14.2171 8.51486C13.8934 7.94445 13.7315 7.30043 13.7315 6.5828C13.7315 5.86518 13.8934 5.22576 14.2171 4.66454C14.5501 4.09413 15.0079 3.65251 15.5906 3.3397C16.1733 3.01769 16.83 2.85669 17.5607 2.85669C18.2914 2.85669 18.9435 3.01769 19.517 3.3397C20.0997 3.65251 20.5529 4.09413 20.8766 4.66454C21.2096 5.22576 21.3761 5.86518 21.3761 6.5828C21.3761 7.30043 21.2096 7.94445 20.8766 8.51486C20.5529 9.07608 20.0997 9.51769 19.517 9.8397C18.9435 10.1617 18.2914 10.3227 17.5607 10.3227ZM17.5607 9.16348C18.0324 9.16348 18.4533 9.05768 18.8233 8.84607C19.2025 8.62527 19.4985 8.32166 19.7112 7.93524C19.9239 7.53963 20.0303 7.08882 20.0303 6.5828C20.0303 6.07679 19.9239 5.63057 19.7112 5.24416C19.4985 4.84855 19.2025 4.54494 18.8233 4.33333C18.4533 4.12173 18.0324 4.01592 17.5607 4.01592C17.089 4.01592 16.6635 4.12173 16.2843 4.33333C15.9143 4.54494 15.6184 4.84855 15.3964 5.24416C15.1836 5.63057 15.0773 6.07679 15.0773 6.5828C15.0773 7.08882 15.1836 7.53963 15.3964 7.93524C15.6184 8.32166 15.9143 8.62527 16.2843 8.84607C16.6635 9.05768 17.089 9.16348 17.5607 9.16348Z" fill="white"/>
<path d="M30.0025 6.6242C30.0025 6.72541 29.9932 6.85881 29.9747 7.02442H24.0089C24.0921 7.66844 24.3742 8.18825 24.8552 8.58386C25.3454 8.97028 25.9513 9.16348 26.6727 9.16348C27.5514 9.16348 28.259 8.86907 28.7954 8.28026L29.5308 9.13588C29.1978 9.52229 28.7816 9.8167 28.2821 10.0191C27.7919 10.2215 27.2415 10.3227 26.6311 10.3227C25.8541 10.3227 25.1651 10.1663 24.5639 9.8535C23.9626 9.53149 23.4956 9.08528 23.1626 8.51486C22.8389 7.94445 22.677 7.30043 22.677 6.5828C22.677 5.87438 22.8342 5.23496 23.1487 4.66454C23.4724 4.09413 23.9118 3.65251 24.4667 3.3397C25.0309 3.01769 25.6645 2.85669 26.3675 2.85669C27.0704 2.85669 27.6948 3.01769 28.2405 3.3397C28.7954 3.65251 29.2255 4.09413 29.5308 4.66454C29.8452 5.23496 30.0025 5.88818 30.0025 6.6242ZM26.3675 3.97452C25.7293 3.97452 25.1928 4.16773 24.7581 4.55414C24.3326 4.94055 24.0829 5.44657 24.0089 6.07219H28.7261C28.6521 5.45577 28.3977 4.95435 27.963 4.56794C27.5375 4.17233 27.0057 3.97452 26.3675 3.97452Z" fill="white"/>
<path d="M38.3621 2.92569L35.1433 10.2399H33.7837L30.5649 2.92569H31.9523L34.4774 8.79087L37.058 2.92569H38.3621Z" fill="white"/>
<path d="M42.6019 6.83121L41.0758 8.23885V10.2399H39.7439V0H41.0758V6.569L45.0854 2.92569H46.6948L43.6009 5.94798L47 10.2399H45.3629L42.6019 6.83121Z" fill="white"/>
</svg>
